<svg id="Слой_1" data-name="Слой 1" xmlns="http://www.w3.org/2000/svg" viewBox="0 0 4472.87 651.13"><defs><style>.cls-1,.cls-2{fill:#0f7b6e;stroke:#0f7b6e;}.cls-1,.cls-2,.cls-5{stroke-linecap:round;stroke-linejoin:round;}.cls-2{stroke-width:2px;}.cls-3{fill:#454e99;}.cls-4{fill:#0696bb;}.cls-5{fill:#fff;stroke:#fff;}.cls-6{fill:#e96220;}.cls-7{fill:#2a71af;}.cls-8{fill:#e32322;}.cls-9{fill:#c5037d;}</style></defs><title>фирменный блок6.1.1.0.Manrope_мельче текст</title><path class="cls-1" d="M171,109.23s216.71,29.19,219.6,437.7c0,0,45-487.37,254.26-543.84,0,0-175.62,20-253.24,186.48C391.66,189.57,321.29,93.42,171,109.23Z"/><path class="cls-2" d="M431.09,76A44.3,44.3,0,1,1,410.5,38.65a43.17,43.17,0,0,1,7.25,5.74A44,44,0,0,1,431.09,76Z"/><path class="cls-3" d="M46.58,553.77c4.24-5.38,29.3-48.2,79.61-41.37,0,0-40.37,5.7-40.5,32.37l100.1,68.7s75.38-63.81,185.6,21.69c0,0-102.85-72.77-190.42,10.29L46.58,553.77"/><path class="cls-4" d="M314.57,307.43s-84.43-100.34-210-91.27c0,0,75.13,72.36,115.23,290.71,0,0,93.22-1.25,132.07,58,0,0-16.49-59.57-107.21-84,0,0-26.8-153-79.23-231.25C165.42,249.58,234.85,242.38,314.57,307.43Z"/><polygon class="cls-5" points="392.12 189.57 379.27 282.39 395.24 302.68 411.88 283 392.12 189.57"/><path class="cls-6" d="M464.36,307.43s84.44-100.34,210-91.27c0,0-75.14,72.36-115.24,290.71,0,0-93.22-1.25-132.06,58,0,0,16.48-59.57,107.2-84,0,0,26.8-153,79.24-231.25C613.52,249.58,544.08,242.38,464.36,307.43Z"/><path class="cls-7" d="M168.52,383.32S90.84,307.43,0,385.91c0,0,72.82,30.25,196.09,181.71,0,0,47.6-31,95.49,1,0,0-36.5-39.54-94.87-28.68,0,0-85.72-106.57-149.55-148.55C47.16,391.44,104.56,347.59,168.52,383.32Z"/><path class="cls-8" d="M610.46,383.32s77.68-75.89,168.52,2.59c0,0-72.82,30.25-196.09,181.71,0,0-47.6-31-95.49,1,0,0,36.5-39.54,94.87-28.68,0,0,85.72-106.57,149.55-148.55C731.82,391.44,674.43,347.59,610.46,383.32Z"/><path class="cls-9" d="M732.78,553.77c-4.24-5.38-29.3-48.2-79.61-41.37,0,0,40.37,5.7,40.5,32.37l-100.1,68.7S518.19,549.66,408,635.16c0,0,102.85-72.77,190.42,10.29l134.39-91.68"/><path class="cls-1" d="M871.75,401.08V214.29h152.88V401.08h-20.37V232.58H892.12v168.5Z"/><path class="cls-1" d="M1091.16,401.08V214.29h77.07q2.91,0,6.58.2a63.6,63.6,0,0,1,7.42.84q15.66,2.21,26.54,10.18a51.41,51.41,0,0,1,16.49,20,62.48,62.48,0,0,1,5.62,26.72,61.64,61.64,0,0,1-5.69,26.6,51.85,51.85,0,0,1-16.56,20q-10.87,8-26.4,10.18-3.75.51-7.42.78t-6.58.26h-56.69v70.95ZM1111.54,312h56.13q2.5,0,5.82-.26a55.6,55.6,0,0,0,6.52-.91,35.37,35.37,0,0,0,16.84-7.91,36.84,36.84,0,0,0,9.84-13.88,44.74,44.74,0,0,0,0-33.53,36.61,36.61,0,0,0-9.84-13.95,35.37,35.37,0,0,0-16.84-7.91,46.67,46.67,0,0,0-6.52-.84q-3.32-.19-5.82-.2h-56.13Z"/><path class="cls-1" d="M1416.75,401.08V247.89L1306.83,401.08h-20.51V214.29h20.51V367.35l109.92-153.06h20.51V401.08Z"/><path class="cls-1" d="M1503.79,401.08V214.29h18.71L1601,371.37l78-157.08h19V401h-19.41V256.84l-71.1,144.24H1594.3l-71-144.24V401.08Z"/><path class="cls-1" d="M1845.32,405q-29.8,0-50.32-12.39a79.24,79.24,0,0,1-31-34.31q-10.55-21.91-10.54-50.58T1764,257.1a79.35,79.35,0,0,1,31-34.31q20.52-12.39,50.32-12.39t50.38,12.39a79.93,79.93,0,0,1,31,34.31q10.61,21.91,10.6,50.59t-10.6,50.58a79.82,79.82,0,0,1-31,34.31Q1875.26,405,1845.32,405Zm0-18.29q23.42,0,39.09-10a61.39,61.39,0,0,0,23.49-27.82q7.83-17.83,7.83-41.18t-7.83-41.12a61.44,61.44,0,0,0-23.49-27.76q-15.67-10-39.09-10.12t-39,10A61.68,61.68,0,0,0,1783,266.5q-7.83,17.83-8,41.19t7.69,41.05a61.91,61.91,0,0,0,23.49,27.76Q1821.89,386.55,1845.32,386.68Z"/><path class="cls-1" d="M1992.8,401.08V214.29h77.06q2.91,0,6.58.2a63.6,63.6,0,0,1,7.42.84q15.66,2.21,26.54,10.18a51.44,51.44,0,0,1,16.5,20,62.62,62.62,0,0,1,5.61,26.72,61.64,61.64,0,0,1-5.68,26.6,52,52,0,0,1-16.57,20q-10.87,8-26.4,10.18-3.75.51-7.42.78t-6.58.26h-56.69v70.95ZM2013.17,312h56.14q2.49,0,5.82-.26a55.73,55.73,0,0,0,6.51-.91,35.37,35.37,0,0,0,16.84-7.91,36.84,36.84,0,0,0,9.84-13.88,44.74,44.74,0,0,0,0-33.53,36.61,36.61,0,0,0-9.84-13.95,35.37,35.37,0,0,0-16.84-7.91,46.72,46.72,0,0,0-6.51-.84q-3.33-.19-5.82-.2h-56.14Z"/><path class="cls-1" d="M2268.76,405q-29.81,0-50.32-12.39a79.24,79.24,0,0,1-31-34.31q-10.55-21.91-10.54-50.58t10.54-50.59a79.35,79.35,0,0,1,31-34.31q20.52-12.39,50.32-12.39,34.78,0,56.83,16.67t30.21,44.69L2335,276.81q-6.37-22.17-22.87-35.15t-43.38-13q-23.43,0-39,10a61.68,61.68,0,0,0-23.36,27.82q-7.83,17.83-8.1,41.19T2206,348.8a61.67,61.67,0,0,0,23.56,27.83q15.74,10,39.16,10.05,26.88,0,43.38-13T2335,338.56l20.79,5.06q-8.18,28-30.21,44.68T2268.76,405Z"/><path class="cls-1" d="M2414,401.08V214.29h20.37V302.5l91.07-88.21h26.06l-93,90.15,100.63,96.64h-26.61l-98.14-93.39v93.39Z"/><path class="cls-1" d="M2736.69,401.08V247.89L2626.78,401.08h-20.52V214.29h20.52V367.35l109.91-153.06h20.52V401.08Z"/><path class="cls-1" d="M2823.74,401.08V214.29h20.51V367.35l109.92-153.06h20.51V401.08h-20.51V247.89L2844.25,401.08Zm77.06-203.39A36.32,36.32,0,0,1,2869.89,181a30.56,30.56,0,0,1-4.85-16.8H2882a16.46,16.46,0,0,0,5.55,12.46,19.74,19.74,0,0,0,26.68,0,16.55,16.55,0,0,0,5.47-12.46h16.91a30.84,30.84,0,0,1-4.78,16.8,35.27,35.27,0,0,1-13,12.13A36.46,36.46,0,0,1,2900.8,197.69Z"/><path class="cls-1" d="M3124.37,401.08V214.29h20.38V302.5l91.06-88.21h26.06l-93,90.15,100.62,96.64h-26.61l-98.13-93.39v93.39Z"/><path class="cls-1" d="M3316.62,401.08V214.29h77.06q2.91,0,6.59.2a63.19,63.19,0,0,1,7.41.84q15.66,2.21,26.55,10.18a51.41,51.41,0,0,1,16.49,20,62.62,62.62,0,0,1,5.61,26.72,61.64,61.64,0,0,1-5.68,26.6,52,52,0,0,1-16.56,20q-10.89,8-26.41,10.18-3.73.51-7.41.78t-6.59.26H3337v70.95ZM3337,312h56.14q2.49,0,5.82-.26a55.6,55.6,0,0,0,6.52-.91,35.42,35.42,0,0,0,16.84-7.91,37.06,37.06,0,0,0,9.84-13.88,44.87,44.87,0,0,0,0-33.53,36.83,36.83,0,0,0-9.84-13.95,35.42,35.42,0,0,0-16.84-7.91,46.67,46.67,0,0,0-6.52-.84q-3.33-.19-5.82-.2H3337Z"/><path class="cls-1" d="M3492.37,401.08l68.75-186.79h27l68.75,186.79h-21.21l-65.28-176.15h8l-64.87,176.15ZM3523,355.81v-17.9h103.13v17.9Z"/><path class="cls-1" d="M3709.57,401.08V214.29h124.75v18.29H3729.94v64.6h87.74v18.29h-87.74v67.32h104.38v18.29Z"/><path class="cls-1" d="M3895.3,401.08V214.29h77.07q16.77,0,29.24,6.49A49.27,49.27,0,0,1,4021,238.23a44.94,44.94,0,0,1-24.68,67.25l-.27-6.36q19.39,5.19,30.49,18.16t11.09,31.39q0,16.23-7.35,28a48.24,48.24,0,0,1-20.65,18.09q-13.3,6.36-30.91,6.36Zm20.51-107.14h56.42a37.5,37.5,0,0,0,17.46-4.09,32.29,32.29,0,0,0,12.54-11.22,29.48,29.48,0,0,0,4.65-16.47q0-13.23-9.77-21.54t-24.88-8.3h-56.42Zm0,88.85h57.94a55.85,55.85,0,0,0,21.9-4.09A36.05,36.05,0,0,0,4011,367.09q5.61-7.51,5.61-18.16a34.79,34.79,0,0,0-5.13-18.67,38.19,38.19,0,0,0-13.93-13.3,39.85,39.85,0,0,0-20-5h-61.68Z"/><path class="cls-1" d="M4173.76,405q-29.81,0-50.32-12.39a79.24,79.24,0,0,1-31-34.31q-10.55-21.91-10.54-50.58t10.54-50.59a79.35,79.35,0,0,1,31-34.31q20.52-12.39,50.32-12.39t50.38,12.39a79.93,79.93,0,0,1,31,34.31q10.61,21.91,10.6,50.59t-10.6,50.58a79.82,79.82,0,0,1-31,34.31Q4203.7,405,4173.76,405Zm0-18.29q23.41,0,39.09-10a61.39,61.39,0,0,0,23.49-27.82q7.83-17.83,7.83-41.18t-7.83-41.12a61.44,61.44,0,0,0-23.49-27.76q-15.68-10-39.09-10.12t-38.95,10a61.66,61.66,0,0,0-23.35,27.82q-7.85,17.83-8,41.19t7.69,41.05a61.91,61.91,0,0,0,23.49,27.76Q4150.33,386.55,4173.76,386.68Z"/><path class="cls-1" d="M4321.24,401.08V214.29h20.51V367.35l109.92-153.06h20.51V401.08h-20.51V247.89L4341.75,401.08Zm77.06-203.39A36.32,36.32,0,0,1,4367.39,181a30.56,30.56,0,0,1-4.85-16.8h16.91a16.46,16.46,0,0,0,5.55,12.46,19.74,19.74,0,0,0,26.68,0,16.55,16.55,0,0,0,5.47-12.46h16.91a30.84,30.84,0,0,1-4.78,16.8,35.27,35.27,0,0,1-13,12.13A36.46,36.46,0,0,1,4398.3,197.69Z"/><path class="cls-1" d="M966.18,645.45V525.73L886.12,645.45h-15v-146h15V619.09l80.06-119.61h14.94v146Z"/><path class="cls-1" d="M1011.2,645.45v-146H1026v65.79h80.37V499.48h14.74v146h-14.74V579.56H1026v65.89Z"/><path class="cls-1" d="M1210.09,648.49q-21.71,0-36.65-9.68A60.66,60.66,0,0,1,1150.83,612q-7.68-17.13-7.67-39.54t7.67-39.53a60.6,60.6,0,0,1,22.61-26.81q14.94-9.67,36.65-9.68,25.34,0,41.39,13t22,34.92l-15.14,4q-4.65-17.34-16.66-27.47t-31.6-10.14q-17.05,0-28.37,7.81a47.47,47.47,0,0,0-17,21.74q-5.7,13.94-5.91,32.18t5.61,32.14a47.51,47.51,0,0,0,17.16,21.74q11.46,7.86,28.52,7.85,19.59,0,31.6-10.18t16.66-27.42l15.14,3.95q-6,21.9-22,34.92T1210.09,648.49Z"/><path class="cls-1" d="M1336.19,645.45V513.77h-50.78V499.48h116.4v14.29H1351V645.45Z"/><path class="cls-1" d="M1514.78,645.45V525.73l-80.06,119.72h-14.94v-146h14.94V619.09l80.06-119.61h15v146Z"/><path class="cls-1" d="M1598.48,645.45V513.77H1547.7V499.48h116.4v14.29h-50.78V645.45Z"/><path class="cls-1" d="M1706.6,645.45,1723,610.88l-51.69-111.4h16.45l43,95.38,43.82-95.38h15.85l-67.64,146Z"/><path class="cls-1" d="M1854.4,645.45V513.77h-50.78V499.48H1920v14.29h-50.78V645.45Z"/><path class="cls-1" d="M1978.78,645.45v-146h56.14c1.41,0,3,0,4.79.15a41.88,41.88,0,0,1,5.4.66,40.4,40.4,0,0,1,19.34,8,39.64,39.64,0,0,1,12,15.66,51.86,51.86,0,0,1,4.09,20.88,51.1,51.1,0,0,1-4.14,20.78,39.3,39.3,0,0,1-31.3,23.62q-2.71.4-5.4.61c-1.78.13-3.38.2-4.79.2h-41.29v55.45Zm14.85-69.64h40.88c1.22,0,2.63-.07,4.24-.2a38.82,38.82,0,0,0,4.75-.71,25.12,25.12,0,0,0,12.27-6.19,28.82,28.82,0,0,0,7.16-10.84,36.78,36.78,0,0,0,2.38-13.08,37.21,37.21,0,0,0-2.38-13.13,28.77,28.77,0,0,0-7.16-10.89,25.2,25.2,0,0,0-12.27-6.19,32.32,32.32,0,0,0-4.75-.65c-1.61-.11-3-.16-4.24-.16h-40.88Z"/><path class="cls-1" d="M2088.43,645.45l50.07-146h19.69l50.07,146h-15.44l-47.56-137.66h5.86l-47.25,137.66Zm22.31-35.38v-14h75.11v14Z"/><path class="cls-1" d="M2270.76,648.49q-14.84,0-25.69-4.36a50.93,50.93,0,0,1-17.82-11.51,48.72,48.72,0,0,1-10.4-15.45l13.53-7.91a36,36,0,0,0,7.67,12.57,37,37,0,0,0,13.53,9,52.39,52.39,0,0,0,19.68,3.34q11.82,0,20-3.75a27.73,27.73,0,0,0,12.47-10.54,29.19,29.19,0,0,0,4.24-15.81q0-9.93-4.74-15.41a25.74,25.74,0,0,0-12.72-7.75,73.23,73.23,0,0,0-17.77-2.59q-7.38-.3-10.5-.4c-2.09-.07-3.47-.1-4.14-.1h-1.92v-14.4H2260c2,0,4.17,0,6.46-.05s4.1-.08,5.45-.15q14.43-.71,22.72-7.6t8.27-18.65q0-12.48-8.73-19.36t-22.56-6.9q-13,0-22,6.24A47.39,47.39,0,0,0,2235,533.64l-12.12-9a55.79,55.79,0,0,1,19.39-20.27q12.51-7.91,29.68-7.91a61.23,61.23,0,0,1,17.62,2.53,46.63,46.63,0,0,1,14.94,7.5,35.73,35.73,0,0,1,10.3,12.52,39.1,39.1,0,0,1,3.78,17.69q0,11.87-5.2,20.68A34.77,34.77,0,0,1,2300,570.64a32.88,32.88,0,0,1,17.41,11.76q6.32,8.42,6.31,22,0,13.38-6.56,23.32a42.69,42.69,0,0,1-18.52,15.35Q2286.71,648.49,2270.76,648.49Z"/><path class="cls-1" d="M2346.48,645.45v-146h56.13q12.21,0,21.3,5.07a36.53,36.53,0,0,1,19.18,32.54,36.27,36.27,0,0,1-6.25,20.93,32.28,32.28,0,0,1-16.76,12.72l-.21-5q14.15,4.07,22.22,14.19t8.07,24.53q0,12.68-5.35,21.85a36,36,0,0,1-15,14.14,48.74,48.74,0,0,1-22.52,5Zm14.94-83.73h41.09a25.88,25.88,0,0,0,12.72-3.19,23.95,23.95,0,0,0,12.52-21.65q0-10.33-7.12-16.82t-18.12-6.49h-41.09Zm0,69.43h42.2a38.31,38.31,0,0,0,16-3.19,26.62,26.62,0,0,0,11.16-9.07,24.28,24.28,0,0,0,4.09-14.19,28.62,28.62,0,0,0-13.89-25,27.47,27.47,0,0,0-14.58-3.9h-44.93Z"/><path class="cls-1" d="M2567.07,645.45V525.73L2487,645.45h-14.94v-146H2487V619.09l80.06-119.61H2582v146Z"/><path class="cls-1" d="M2650.76,645.45V513.77H2600V499.48h116.41v14.29h-50.78V645.45Z"/><path class="cls-1" d="M2829.36,645.45V525.73L2749.3,645.45h-14.94v-146h14.94V619.09l80.06-119.61h14.94v146Z"/><path class="cls-1" d="M2868.33,645.45l31.5-64.88,14.23,5.48-28.67,59.4Zm90.26,0V590h-48.26l-5.15-1.22q-16.16-3.13-24.84-15.3t-8.68-28.69a51.86,51.86,0,0,1,4.09-20.88,39.64,39.64,0,0,1,12-15.66,40.4,40.4,0,0,1,19.34-8,41.88,41.88,0,0,1,5.4-.66c1.78-.1,3.38-.15,4.79-.15h56.14v146Zm0-131.68H2917.7c-1.21,0-2.63.05-4.24.16a32.32,32.32,0,0,0-4.75.65,25.12,25.12,0,0,0-12.26,6.19,28.68,28.68,0,0,0-7.17,10.89,37.2,37.2,0,0,0-2.37,13.13,36.77,36.77,0,0,0,2.37,13.08,28.73,28.73,0,0,0,7.17,10.84,25,25,0,0,0,12.26,6.19,38.82,38.82,0,0,0,4.75.71c1.61.13,3,.2,4.24.2h40.89Z"/><path class="cls-1" d="M3109.21,648.49q-21.71,0-36.64-9.68A60.68,60.68,0,0,1,3050,612q-7.66-17.13-7.67-39.54t7.67-39.53a60.62,60.62,0,0,1,22.62-26.81q14.94-9.67,36.64-9.68t36.7,9.68a61.08,61.08,0,0,1,22.62,26.81q7.72,17.13,7.72,39.53T3168.53,612a61.13,61.13,0,0,1-22.62,26.81Q3131,648.49,3109.21,648.49Zm0-14.3q17.07,0,28.47-7.8a47.28,47.28,0,0,0,17.12-21.74q5.7-13.93,5.7-32.19t-5.7-32.13a47.3,47.3,0,0,0-17.12-21.69q-11.4-7.8-28.47-7.91t-28.37,7.81a47.6,47.6,0,0,0-17,21.74q-5.7,13.94-5.8,32.18t5.6,32.09a47.69,47.69,0,0,0,17.11,21.69Q3092.16,634.09,3109.21,634.19Z"/><path class="cls-1" d="M3198.26,645.45v-146H3288v14.29H3213.1v42.48h41.29c1.42,0,3,0,4.8.15s3.58.29,5.4.55a39,39,0,0,1,19.13,7.71,40.19,40.19,0,0,1,12.12,15.61,52.61,52.61,0,0,1,0,41.15A40.19,40.19,0,0,1,3283.72,637a39,39,0,0,1-19.13,7.71c-1.82.2-3.62.37-5.4.5s-3.38.21-4.8.21Zm14.84-14.3H3254c1.21,0,2.62-.06,4.24-.2s3.2-.34,4.74-.61q11.21-2.22,16.51-10.79a35.75,35.75,0,0,0,0-37.46q-5.3-8.51-16.51-10.74a30.91,30.91,0,0,0-4.74-.66c-1.62-.1-3-.15-4.24-.15H3213.1Z"/><path class="cls-1" d="M3322,645.45v-146h56.14c1.41,0,3,0,4.79.15a42.31,42.31,0,0,1,5.4.66,40.4,40.4,0,0,1,19.34,8,39.73,39.73,0,0,1,12,15.66,51.86,51.86,0,0,1,4.09,20.88,51.1,51.1,0,0,1-4.14,20.78,39.34,39.34,0,0,1-31.3,23.62q-2.73.4-5.4.61c-1.78.13-3.38.2-4.79.2h-41.3v55.45Zm14.84-69.64h40.89c1.21,0,2.63-.07,4.24-.2a38.82,38.82,0,0,0,4.75-.71,25,25,0,0,0,12.26-6.19,28.73,28.73,0,0,0,7.17-10.84,36.77,36.77,0,0,0,2.37-13.08,37.2,37.2,0,0,0-2.37-13.13,28.68,28.68,0,0,0-7.17-10.89,25.12,25.12,0,0,0-12.26-6.19,32.32,32.32,0,0,0-4.75-.65c-1.61-.11-3-.16-4.24-.16h-40.89Z"/><path class="cls-1" d="M3431.67,645.45l50.08-146h19.69l50.07,146h-15.45l-47.55-137.66h5.86l-47.25,137.66ZM3454,610.07v-14h75.11v14Z"/><path class="cls-1" d="M3614,648.49q-14.85,0-25.7-4.36a51.11,51.11,0,0,1-17.82-11.51,48.89,48.89,0,0,1-10.4-15.45l13.53-7.91a36.15,36.15,0,0,0,7.68,12.57,36.93,36.93,0,0,0,13.52,9,52.45,52.45,0,0,0,19.69,3.34q11.82,0,20-3.75A27.78,27.78,0,0,0,3647,619.9a29.19,29.19,0,0,0,4.24-15.81q0-9.93-4.75-15.41a25.65,25.65,0,0,0-12.72-7.75,73.15,73.15,0,0,0-17.76-2.59q-7.38-.3-10.5-.4c-2.09-.07-3.47-.1-4.14-.1h-1.92v-14.4h3.73c2,0,4.18,0,6.47-.05s4.1-.08,5.45-.15q14.43-.71,22.71-7.6t8.28-18.65q0-12.48-8.73-19.36t-22.57-6.9q-13,0-21.95,6.24a47.39,47.39,0,0,0-14.59,16.67l-12.12-9a55.79,55.79,0,0,1,19.39-20.27q12.51-7.91,29.68-7.91a61.23,61.23,0,0,1,17.62,2.53,46.74,46.74,0,0,1,14.94,7.5,35.73,35.73,0,0,1,10.3,12.52,39.1,39.1,0,0,1,3.78,17.69q0,11.87-5.2,20.68a34.79,34.79,0,0,1-13.38,13.28,32.91,32.91,0,0,1,17.42,11.76q6.32,8.42,6.31,22,0,13.38-6.56,23.32a42.66,42.66,0,0,1-18.53,15.35Q3630,648.49,3614,648.49Z"/><path class="cls-1" d="M3748.58,648.49q-21.7,0-36.64-9.68A60.68,60.68,0,0,1,3689.32,612q-7.67-17.13-7.67-39.54t7.67-39.53a60.62,60.62,0,0,1,22.62-26.81q14.94-9.67,36.64-9.68t36.7,9.68a61.08,61.08,0,0,1,22.62,26.81q7.72,17.13,7.72,39.53T3807.9,612a61.13,61.13,0,0,1-22.62,26.81Q3770.39,648.49,3748.58,648.49Zm0-14.3q17.07,0,28.47-7.8a47.28,47.28,0,0,0,17.12-21.74q5.7-13.93,5.7-32.19t-5.7-32.13a47.3,47.3,0,0,0-17.12-21.69q-11.4-7.8-28.47-7.91t-28.36,7.81a47.55,47.55,0,0,0-17,21.74q-5.7,13.94-5.8,32.18t5.6,32.09a47.69,47.69,0,0,0,17.11,21.69Q3731.52,634.09,3748.58,634.19Z"/><path class="cls-1" d="M3837.63,645.45v-146h56.13q12.21,0,21.3,5.07a36.57,36.57,0,0,1,19.19,32.54A36.28,36.28,0,0,1,3928,558a32.28,32.28,0,0,1-16.76,12.72l-.2-5q14.13,4.07,22.21,14.19t8.07,24.53q0,12.68-5.35,21.85a36,36,0,0,1-15,14.14,48.73,48.73,0,0,1-22.51,5Zm14.94-83.73h41.09a25.86,25.86,0,0,0,12.72-3.19,23.95,23.95,0,0,0,12.52-21.65q0-10.33-7.12-16.82t-18.12-6.49h-41.09Zm0,69.43h42.2a38.31,38.31,0,0,0,15.95-3.19,26.62,26.62,0,0,0,11.16-9.07A24.28,24.28,0,0,0,3926,604.7a28.64,28.64,0,0,0-13.88-25,27.53,27.53,0,0,0-14.59-3.9h-44.93Z"/><path class="cls-1" d="M3953.12,645.45l50.08-146h19.69l50.07,146h-15.44L4010,507.79h5.86l-47.25,137.66Zm22.32-35.38v-14h75.11v14Z"/><path class="cls-1" d="M4093,645.45v-146h14.84v65.79h80.37V499.48h14.74v146h-14.74V579.56h-80.37v65.89Z"/><path class="cls-1" d="M4328,645.45V525.73l-80.06,119.72H4233v-146h14.94V619.09L4328,499.48h14.94v146Z"/><path class="cls-1" d="M4367,645.45l31.5-64.88,14.24,5.48L4384,645.45Zm90.26,0V590H4409l-5.15-1.22q-16.16-3.13-24.83-15.3t-8.69-28.69a52,52,0,0,1,4.09-20.88,39.66,39.66,0,0,1,12-15.66,40.33,40.33,0,0,1,19.33-8,42.31,42.31,0,0,1,5.4-.66q2.67-.15,4.8-.15h56.13v146Zm0-131.68h-40.89c-1.21,0-2.62.05-4.24.16a32.19,32.19,0,0,0-4.74.65,25.11,25.11,0,0,0-12.27,6.19,28.68,28.68,0,0,0-7.17,10.89,37.2,37.2,0,0,0-2.37,13.13,36.77,36.77,0,0,0,2.37,13.08,28.73,28.73,0,0,0,7.17,10.84,25,25,0,0,0,12.27,6.19,38.66,38.66,0,0,0,4.74.71c1.62.13,3,.2,4.24.2h40.89Z"/></svg>